<svg xmlns="http://www.w3.org/2000/svg" viewBox="0 0 200 302.9"><defs><style>.cls-1,.cls-3,.cls-5{fill:#e51e2d;}.cls-2{fill:#fff;}.cls-3{stroke:#e51e2d;stroke-miterlimit:10;}.cls-4{fill:none;}.cls-5{fill-rule:evenodd;}</style></defs><g id="VETOR"><path class="cls-1" d="M200,29.86,199.38,90,161.8,100.25l17.75-17.71V39.07a205,205,0,0,0-159.66-.56v94.23l127.57,84.08,6,4v18l-9.94,8.83V232.2L13,146.15,0,137.61V28.42a201.44,201.44,0,0,1,19.89-9.63A204,204,0,0,1,200,29.86Z"/><polygon class="cls-2" points="117.08 148.31 117.08 295.33 106.06 299.87 106.06 141.18 117.08 148.31"/><path class="cls-1" d="M84.77,129.85l21.29,11.33V299.87C60,278,38.52,264.77,0,246.53V163.26l20.14,9L20,230.12c29.21,11.48,35.27,17.54,64.44,29.29Z"/><path class="cls-3" d="M197.75,196.55v68l-8.09,3.87L144.88,284l-.52-15.6L180.87,256V204.56L57,130.93,36.76,117.58V51.52A168.32,168.32,0,0,1,57,44.89a171.63,171.63,0,0,1,101.59,4.87q2.58.95,5.13,2l-.14,18.59-.07,10.14-14.64,8L145,68c-14.69-4.11-26.29-8.83-42.27-8.83A171,171,0,0,0,57,65.36v46.43l131.33,78.56Z"/><polygon class="cls-4" points="36.59 114.03 36.59 114.66 36.29 114.47 36.59 114.03"/><polygon class="cls-2" points="130.74 231.75 121.83 235.45 122.11 293.52 131.16 290.26 130.74 231.75"/><path class="cls-5" d="M52.12,124.61c3.49-5,5.41-11.21,6.17-18.42.9-8.39-.49-16.42-.17-24.42,2,3.83,2.12,11.27,5,15.72,7.5-.27,12.58-11.65,10.83-15.58-.76-1.71-1.85-2.36-3.39-3.74-.24-.21-.45-.41-.88-.78C64.76,73.06,59.3,71.76,58,69.16c4.67.59,6.28.61,9.72,2.49,2.92,1.59,5.83,3.92,8,4.87,3-1.46,7.49-6,14.22-5.69-2.29,1.67-8.54,3.87-9.77,6.5,6.54-1.13,11.41-8.45,28.93-4.18,3.6.88,5.9,2.8,9.13,3.3-1-2.27-4.78-3.88-7.16-5.1,3.11-1.72,10.26,4,13,5,11.6-6.23,1.8-3.49,17.1-7.27-2.21,4-13.87,7.06-15.75,13.17,2.62,1.22,2.27,2.44,3.6,3.06,1.53-3.55-.45-.69,4.55-5.57,1.38-1.34,4.18-4.07,5.75-4.51.28,3.63-.5,8.19-1.19,11.77-.4,2.12-.84,3.46-1.34,5.29-.25.92-.5,1.7-.73,2.65a3.3,3.3,0,0,0,.1,2.78c1.92-1.56,2.9-6.62,3.59-9.67,1.49-6.58.65-10.26,1.36-12.16.88,2.12-.47,14.57-.79,17.8-.66,6.72-.25,12.34-.18,18.47l-8.93-9.82c-1,.25-8.79,5.43-9.61,7.73,3.12-.22,4-.81,5.68-2.35-.22,2.94-.61,1-1.9,3.74.6,1.15.29.38.88,1,.81.89.48,0,.93,1-2.51,2.74-7.72,4.67-10.14,6.77,1,.53,1.53.34,2.61,0,2.53-.87,4.49-2.55,9.49-2.89a8.5,8.5,0,0,1-4.29,3.7c0,.09.16.09.18.2.08.43.86.21,1.12,1.76-6.1,4.3-11.26,6.66-16.71,11.55,1.32.73,10.82-4.85,14.28-6.43,5-2.29,23.51-5.57,16.1,4.58a47.59,47.59,0,0,1-3.47,4.26c-2.68,3-5.62,4.8-7.79,6.9,3.14-.23,1.7-.7,4.56-1.28-.5,1.5-.14,1.29-1.72,2.62a29.59,29.59,0,0,1-2.71,1.69c-2.1,1.17-3.7,1.55-5.63,2.5a5.41,5.41,0,0,0,3.59.36c1.91-.35,1.82-1.16,3.43-.39-5.22,3.09-5.34,2.18-8.61,3.56l2.6,1.42c-7.69,3.67-16.66-12-21.67-5.13-1,2.26,9,14.5,20.91,13.6,6.93-.53,15.76-10,20-16.77,2.13-3.43,5.66-10.89,5.76-15.05l.33,10c5.89-9.23-1.29-23.55-.12-31.54C160.63,31.41,80,23.68,56.84,61.3c-15.94,25.87-4.76,43.26-4.68,54,0,3.12-.19,6.18,0,9.3Z"/><path class="cls-2" d="M134.22,131.15c-.54,3.69-.94,4.75-5.63,7.16s-9.27,3.39-10.08,1.82,2-6.07,6.7-8.48S134.48,129.42,134.22,131.15Z"/></g></svg>